<?xml version="1.0" standalone="no"?>
<!DOCTYPE svg PUBLIC "-//W3C//DTD SVG 20010904//EN"
 "http://www.w3.org/TR/2001/REC-SVG-20010904/DTD/svg10.dtd">
<svg version="1.0" xmlns="http://www.w3.org/2000/svg"
 width="800.000000pt" height="400.000000pt" viewBox="0 0 800.000000 400.000000"
 preserveAspectRatio="xMidYMid meet">

<g transform="translate(0.000000,400.000000) scale(0.100000,-0.100000)"
fill="#000000" stroke="none">
<path d="M610 1985 l0 -845 520 0 520 0 0 150 0 150 -340 0 -340 0 0 695 0
695 -180 0 -180 0 0 -845z"/>
<path d="M5270 2454 c-148 -15 -263 -44 -367 -90 l-54 -23 57 -113 c31 -62 58
-115 60 -117 2 -2 53 13 114 33 175 58 316 65 379 18 50 -37 65 -69 69 -146
l4 -73 -173 -6 c-415 -16 -585 -111 -622 -347 -21 -135 17 -272 98 -359 68
-73 144 -103 272 -109 182 -8 289 27 393 130 33 33 63 57 67 55 5 -3 22 -42
38 -86 l29 -81 123 0 123 0 0 468 c0 505 -4 551 -55 637 -30 51 -100 117 -155
145 -86 44 -285 76 -400 64z m260 -801 c0 -71 -5 -97 -24 -138 -43 -92 -123
-138 -241 -138 -120 0 -169 43 -170 148 0 96 50 159 149 186 38 11 158 24 249
28 l37 1 0 -87z"/>
<path d="M6821 2434 c-79 -21 -145 -60 -202 -121 -27 -29 -52 -53 -54 -53 -3
0 -16 38 -30 85 l-26 85 -135 0 -134 0 0 -645 0 -645 175 0 175 0 0 318 c0
461 15 560 98 643 56 56 107 73 204 67 74 -4 107 -21 145 -77 38 -57 43 -113
43 -541 l0 -410 175 0 175 0 0 465 c0 307 -4 482 -11 517 -36 165 -135 272
-292 314 -67 18 -237 17 -306 -2z"/>
<path d="M1912 1948 c4 -465 5 -485 26 -548 42 -126 116 -207 230 -251 71 -27
240 -37 325 -19 89 18 190 73 241 132 52 59 47 63 81 -59 l18 -63 133 0 134 0
0 645 0 645 -174 0 -175 0 -3 -392 c-4 -377 -5 -396 -27 -461 -40 -122 -118
-177 -248 -177 -122 0 -185 64 -204 207 -4 37 -8 238 -9 446 l0 377 -176 0
-175 0 3 -482z"/>
<path d="M3294 2413 c4 -10 114 -299 245 -643 l238 -625 183 0 182 0 244 640
c134 352 244 641 244 643 0 1 -83 2 -184 2 l-184 0 -136 -407 c-77 -234 -140
-440 -147 -483 -6 -41 -14 -82 -17 -90 -6 -17 -4 -25 -22 90 -6 43 -69 247
-148 483 l-136 407 -184 0 c-170 0 -183 -1 -178 -17z"/>
</g>
</svg>
